<svg id="Layer_5" enable-background="new 0 0 64 64" height="512" viewBox="0 0 64 64" width="512" fill="#806d67" xmlns="http://www.w3.org/2000/svg"><g><path d="m40 47c1.654 0 3-1.346 3-3s-1.346-3-3-3-3 1.346-3 3 1.346 3 3 3zm0-4c.552 0 1 .448 1 1s-.448 1-1 1-1-.448-1-1 .448-1 1-1z"/><path d="m60.899 33h2.101v-3c0-1.654-1.346-3-3-3h-12.986c-.951 0-1.854.457-2.418 1.223-.519-.143-1.052-.223-1.596-.223-.833 0-1.627.171-2.349.48-.148-.295-.33-.573-.566-.808l-7.758-7.758c-.58-.581-1.384-.914-2.206-.914-1.721 0-3.121 1.4-3.121 3.121 0 .822.333 1.626.914 2.207l.938.938c-2.048 2.63-6.349 5.677-11.852 7.018v-2.284h.585c1.179 0 2.288-.46 3.122-1.293.821-.82 1.293-1.958 1.293-3.121v-.865l.888-.296c1.264-.422 2.112-1.6 2.112-2.932 0-.479-.113-.957-.326-1.382l-.559-1.116c-.076-.152-.115-.317-.115-.488v-4.506c0-1.44-.621-2.73-1.599-3.643 1.541-.853 2.599-2.476 2.599-4.358 0-2.757-2.243-5-5-5h-6.527c-3.014 0-5.735 1.607-7.19 4.22-3.222 1.443-5.283 4.608-5.283 8.165v3.406c0 4.115 2.789 7.688 6.782 8.686l1.218.304v4.498l-.018.006c-3.578 1.194-5.982 4.53-5.982 8.302v13.413 1 10h18v-10-1-2.743l1.848.352c1.367.261 2.765.393 4.152.393 2.206 0 4-1.794 4-4v-7.002c0-1.654-1.346-3-3-3-.157 0-.309.023-.459.046 2.788-1.944 4.778-4.255 5.962-6.129l2.169 2.169c.396.396.898.665 1.435.804-.068.36-.107.73-.107 1.11 0 1.145.356 2.262.989 3.232l-.059.081c-2.852.885-4.93 3.548-4.93 6.687 0 2.172.995 4.117 2.553 5.402l1.267 7.598h-4.82c-2.757 0-5 2.243-5 5v1h36v-1c0-2.757-2.243-5-5-5h-9.28l-2.995-8.986c.801-1.138 1.275-2.52 1.275-4.014 0-.952-.193-1.859-.538-2.687l4.156-8.313h.483c.399 1.956 1.943 3.5 3.899 3.899v5.202c-2.279.465-4 2.484-4 4.899v.162l1.052 3.154 1.896-.633-.944-2.835c.079-1.583 1.392-2.848 2.996-2.848s2.917 1.265 2.996 2.849l-.944 2.835 1.896.633 1.052-3.155v-.162c0-2.414-1.721-4.434-4-4.899v-5.202c1.956-.399 3.5-1.943 3.899-3.899zm-38.644-10.473-2.255.752v2.307c0 .636-.258 1.258-.707 1.707-.457.456-1.063.708-1.708.708h-4.585v2h2v2.843c-1.193-1.002-2.535-1.844-4-2.499v-8.758l-1.233-1.233c-.495-.495-.767-1.153-.767-1.852v-.266c0-.998.555-1.895 1.447-2.341l.553-.276v-.618h3.219l.342 1.368c.387 1.549 1.772 2.631 3.37 2.631l4.127.001c.05.308.129.61.268.889l.56 1.117c.074.149.114.317.114.486 0 .47-.3.886-.745 1.034zm-8.255-11.526h5c1.302 0 2.402.839 2.816 2h-10.632c.414-1.162 1.514-2 2.816-2zm3.931 5.999c-.677 0-1.265-.458-1.429-1.116l-.221-.883h5.719v2zm-9.664 6.537c-3.101-.776-5.267-3.55-5.267-6.746v-3.406c0-2.86 1.716-5.394 4.371-6.455l.354-.142.17-.34c1.062-2.127 3.2-3.448 5.578-3.448h6.527c1.654 0 3 1.346 3 3s-1.346 3-3 3h-4c-.552 0-1-.448-1-1s.448-1 1-1h1v-2h-1c-1.654 0-3 1.346-3 3 0 .382.079.745.209 1.081-2.38.382-4.209 2.434-4.209 4.92v.431c-1.247.854-2 2.261-2 3.805v.266c0 1.233.48 2.394 1.353 3.266l.647.646v1.305zm10.733 37.463h-4v-3.586l1.707-1.707-1.414-1.414-2.293 2.293v4.414h-8v-8h14zm0-10h-14v-6.851c1.264 1.534 3.046 2.64 5.113 3.034l8.887 1.693zm-8.512-5.781c-3.18-.607-5.488-3.396-5.488-6.632 0-2.91 1.854-5.483 4.614-6.404l.348-.116c4.138 1.77 7.194 5.238 8.437 9.503l-4.314-1.078c-.745-.187-1.324-.795-1.476-1.549l-.628-3.138-1.961.393.628 3.138c.302 1.508 1.461 2.724 2.952 3.096l9.4 2.351v2.82zm16.512 2.782c-.666 0-1.334-.038-2-.105v-3.278l.813-.406c.277-.138.587-.211.896-.211h.291c1.103 0 2 .897 2 2s-.897 2-2 2zm2-9.001v3.557c-.591-.344-1.268-.556-2-.556v-3.001c0-.552.448-1 1-1s1 .448 1 1zm-4 0v3.394c-.026.012-.055.016-.081.029l-1.035.519-3.282-.821c-.201-.916-.481-1.801-.821-2.654 2.145-.478 4.065-1.239 5.753-2.167-.336.483-.534 1.068-.534 1.7zm-6.098-1.398c-.543-.988-1.176-1.92-1.902-2.776v-.495c6.088-1.365 10.836-4.625 13.274-7.644l1.776 1.776c-1.72 2.908-6.177 7.743-13.148 9.139zm18.184-6.93-7.758-7.758c-.209-.209-.328-.498-.328-.793 0-.618.503-1.121 1.121-1.121.295 0 .584.119.793.328l7.758 7.758c.139.139.22.318.271.507-.441.406-.821.876-1.125 1.397-.272-.018-.538-.125-.732-.318zm1.914 3.328c0-2.206 1.794-4 4-4 .092 0 .181.021.272.028l-3.981 5.429c-.188-.462-.291-.951-.291-1.457zm-4 10c0-2.757 2.243-5 5-5s5 2.243 5 5-2.243 5-5 5-5-2.243-5-5zm25.829 17h-31.658c.413-1.164 1.525-2 2.829-2h26c1.304 0 2.416.836 2.829 2zm-21.982-4-1.061-6.365c.697.234 1.44.365 2.214.365 1.556 0 2.99-.517 4.154-1.379l2.459 7.379zm10.535-26-4.171 8.342c-1.154-1.289-2.772-2.151-4.593-2.311l5.59-7.622c.187-.256.488-.409.806-.409h12.986c.552 0 1 .448 1 1v1zm3.802 2h5.631c-.414 1.161-1.514 2-2.816 2s-2.401-.839-2.815-2z"/><path d="m40.5 16.757h1.999v9.487h-1.999z" transform="matrix(.949 -.316 .316 .949 -4.669 14.227)"/><path d="m42.972 17.5h9.055v2h-9.055z" transform="matrix(.11 -.994 .994 .11 23.873 63.669)"/><path d="m49.095 21.499h7.81v2.001h-7.81z" transform="matrix(.768 -.64 .64 .768 -2.118 39.152)"/></g></svg>