<?xml version="1.0" encoding="UTF-8" standalone="no"?>
<!-- Created with Inkscape (http://www.inkscape.org/) -->
<svg xmlns:svg="http://www.w3.org/2000/svg" xmlns="http://www.w3.org/2000/svg" version="1.0" width="750" height="600" id="svg2">
  <defs id="defs4"/>
  <g id="layer1">
    <g id="g1876">
      <path d="M 37.50003,-0.00048 L 712.50057,-0.00048 C 733.27559,-0.00048 750.0006,16.724533 750.0006,37.49955 L 750.0006,562.49997 C 750.0006,583.27499 733.27559,600 712.50057,600 L 37.50003,600 C 16.725013,600 0,583.27499 0,562.49997 L 0,37.49955 C 0,16.724533 16.725013,-0.00048 37.50003,-0.00048 z " style="fill:black;fill-opacity:1;stroke:none" id="rect5533"/>
      <path d="M 87.50007,49.99956 L 662.50053,49.99956 C 683.27555,49.99956 700.00056,66.724573 700.00056,87.49959 L 700.00056,512.49993 C 700.00056,533.27495 683.27555,549.99996 662.50053,549.99996 L 87.50007,549.99996 C 66.725053,549.99996 50.00004,533.27495 50.00004,512.49993 L 50.00004,87.49959 C 50.00004,66.724573 66.725053,49.99956 87.50007,49.99956 z " style="fill:white;fill-opacity:1;stroke:none" id="rect5535"/>
      <path d="M 153.23982,444.8154 L 153.23982,207.06841 L 135.08757,207.06841 L 135.08757,175.51304 C 143.4425,174.93286 150.14185,172.91448 155.18565,169.45789 C 160.22935,166.00186 164.33427,161.24393 167.50042,155.1841 L 195.17733,155.1841 L 195.17733,444.8154 L 153.23982,444.8154 z M 424.01969,299.57101 C 424.01949,321.76015 422.79483,340.63574 420.3457,356.19785 C 417.89619,371.76014 413.64176,386.45826 407.5824,400.29226 C 400.37937,417.58265 391.37581,430.18984 380.57169,438.11384 C 369.76727,446.03786 356.1509,449.99987 339.72253,449.99987 C 322.43207,449.99987 308.38256,446.03786 297.57396,438.11384 C 286.76522,430.18984 277.75946,417.58265 270.55665,400.29226 C 264.50587,386.16803 260.25584,371.39736 257.80654,355.98018 C 255.35719,340.56319 254.13253,321.76015 254.13256,299.57101 C 254.13253,277.67239 255.35719,258.86935 257.80654,243.16183 C 260.25584,227.45473 264.50587,212.68405 270.55665,198.84976 C 278.04968,181.55966 287.20056,169.09539 298.0093,161.45692 C 308.81789,153.81902 322.72229,149.99992 339.72253,149.99963 C 356.43233,149.99992 370.11906,153.81902 380.78277,161.45692 C 391.44617,169.09539 400.37937,181.84988 407.5824,199.72044 C 410.46688,206.92353 412.99095,214.12638 415.15463,221.329 C 417.31794,228.53208 419.04829,236.09551 420.3457,244.01932 C 421.64273,251.94353 422.57936,260.44579 423.15561,269.52613 C 423.73146,278.60682 424.01949,288.62177 424.01969,299.57101 L 424.01969,299.57101 z M 384.24568,299.57101 C 384.24552,291.49763 384.03005,284.14747 383.59927,277.52051 C 383.16817,270.89388 382.59212,264.77058 381.87111,259.15059 C 381.14979,253.53097 380.21316,248.12884 379.06121,242.94417 C 377.90895,237.7599 376.61173,232.57323 375.16955,227.38415 C 371.42287,214.41221 366.7397,205.04367 361.12003,199.2785 C 355.50009,193.51383 348.3676,190.63137 339.72253,190.63112 C 321.85162,190.63137 309.60502,202.59215 302.9827,226.51348 C 299.51751,237.46308 297.13855,248.48502 295.8458,259.57933 C 294.55291,270.67401 293.9065,284.29039 293.90657,300.42849 C 293.9065,308.21193 294.12197,315.34662 294.55298,321.83258 C 294.98385,328.31879 295.5599,334.37173 296.28114,339.99143 C 297.00223,345.61134 297.93887,351.15859 299.09104,356.63319 C 300.24308,362.10797 301.54029,367.72558 302.9827,373.48602 C 309.60502,397.40764 321.85162,409.36842 339.72253,409.36838 C 348.3676,409.36842 355.50009,406.48596 361.12003,400.721 C 366.7397,394.95612 371.42287,385.87781 375.16955,373.48602 C 376.89316,367.72558 378.33329,362.18053 379.48995,356.85086 C 380.6463,351.52137 381.58293,345.97412 382.29985,340.2091 C 383.01646,334.44428 383.51996,328.31879 383.81034,321.83258 C 384.10041,315.34662 384.24552,307.92611 384.24568,299.57101 L 384.24568,299.57101 z M 646.91244,299.57101 C 646.91224,321.76015 645.68758,340.63574 643.23846,356.19785 C 640.78894,371.76014 636.53451,386.45826 630.47516,400.29226 C 623.27213,417.58265 614.26857,430.18984 603.46445,438.11384 C 592.66002,446.03786 579.04365,449.99987 562.61529,449.99987 C 545.32482,449.99987 531.27531,446.03786 520.46671,438.11384 C 509.65797,430.18984 500.65221,417.58265 493.44941,400.29226 C 487.39862,386.16803 483.14859,371.39736 480.6993,355.98018 C 478.24995,340.56319 477.02529,321.76015 477.02531,299.57101 C 477.02529,277.67239 478.24995,258.86935 480.6993,243.16183 C 483.14859,227.45473 487.39862,212.68405 493.44941,198.84976 C 500.94244,181.55966 510.09331,169.09539 520.90205,161.45692 C 531.71065,153.81902 545.61505,149.99992 562.61529,149.99963 C 579.32508,149.99992 593.01181,153.81902 603.67552,161.45692 C 614.33892,169.09539 623.27213,181.84988 630.47516,199.72044 C 633.35963,206.92353 635.88371,214.12638 638.04739,221.329 C 640.21069,228.53208 641.94105,236.09551 643.23846,244.01932 C 644.53548,251.94353 645.47211,260.44579 646.04836,269.52613 C 646.62422,278.60682 646.91224,288.62177 646.91244,299.57101 L 646.91244,299.57101 z M 607.13843,299.57101 C 607.13828,291.49763 606.92281,284.14747 606.49202,277.52051 C 606.06093,270.89388 605.48487,264.77058 604.76386,259.15059 C 604.04255,253.53097 603.10591,248.12884 601.95396,242.94417 C 600.8017,237.7599 599.50449,232.57323 598.06231,227.38415 C 594.31562,214.41221 589.63245,205.04367 584.01278,199.2785 C 578.39284,193.51383 571.26035,190.63137 562.61529,190.63112 C 544.74437,190.63137 532.49777,202.59215 525.87545,226.51348 C 522.41027,237.46308 520.0313,248.48502 518.73855,259.57933 C 517.44567,270.67401 516.79926,284.29039 516.79932,300.42849 C 516.79926,308.21193 517.01473,315.34662 517.44573,321.83258 C 517.87661,328.31879 518.45266,334.37173 519.17389,339.99143 C 519.89499,345.61134 520.83162,351.15859 521.9838,356.63319 C 523.13583,362.10797 524.43305,367.72558 525.87545,373.48602 C 532.49777,397.40764 544.74437,409.36842 562.61529,409.36838 C 571.26035,409.36842 578.39284,406.48596 584.01278,400.721 C 589.63245,394.95612 594.31562,385.87781 598.06231,373.48602 C 599.78592,367.72558 601.22605,362.18053 602.3827,356.85086 C 603.53905,351.52137 604.47568,345.97412 605.19261,340.2091 C 605.90922,334.44428 606.41271,328.31879 606.70309,321.83258 C 606.99316,315.34662 607.13828,307.92611 607.13843,299.57101 L 607.13843,299.57101 z " style="font-size:432.27685547px;font-style:normal;font-weight:normal;text-align:center;text-anchor:middle;fill:black;fill-opacity:1;stroke:none;stroke-width:1px;stroke-linecap:butt;stroke-linejoin:miter;stroke-opacity:1;font-family:Roadgeek 2005 Series C" id="text1873"/>
    </g>
  </g>
</svg>