<?xml version="1.0" ?><svg viewBox="0 0 64 64" xmlns="http://www.w3.org/2000/svg"><defs><style>.cls-1{fill:none;stroke:#030104;stroke-linecap:round;stroke-linejoin:round;stroke-width:3px;}.cls-2{fill:#030104;}</style></defs><title/><g data-name="Layer 3" id="Layer_3"><path class="cls-1" d="M13.75,57A6.85,6.85,0,0,1,9,55a6.74,6.74,0,0,1-2-4.77V13.75A6.75,6.75,0,0,1,13.75,7H43.63"/><path class="cls-1" d="M50.25,7A6.85,6.85,0,0,1,55,9a6.74,6.74,0,0,1,2,4.77v36.5A6.75,6.75,0,0,1,50.25,57H21"/></g><g data-name="10" id="_10"><path class="cls-2" d="M30.75,37.31a10.7,10.7,0,1,1,9.25-16h0a10.69,10.69,0,0,1-9.25,16Zm0-18.39a7.7,7.7,0,0,0-6.66,11.55,7.7,7.7,0,1,0,13.34-7.7h0A7.7,7.7,0,0,0,30.72,18.92Z"/><path class="cls-2" d="M43.46,52.31a4.76,4.76,0,0,1-4.12-2.37l-4.48-7.76a16.11,16.11,0,1,1,8.06-5l4.64,8a4.74,4.74,0,0,1-4.1,7.12ZM35.56,38.9a1.48,1.48,0,0,1,1.3.75l5.08,8.79a1.75,1.75,0,0,0,3.2-.42A1.72,1.72,0,0,0,45,46.69h0l-5.2-9A1.5,1.5,0,0,1,40,35.87a13,13,0,0,0,1.76-16.35,13.19,13.19,0,0,0-17-4.56,13.12,13.12,0,0,0-5.36,18.21A13.11,13.11,0,0,0,35.07,39,1.67,1.67,0,0,1,35.56,38.9Z"/></g></svg>